<svg width="688" height="629" viewBox="0 0 688 629" fill="none" xmlns="http://www.w3.org/2000/svg">
<g opacity="0.05">
<path fill-rule="evenodd" clip-rule="evenodd" d="M344 -59C153.94 -59 0 94.94 0 285C0 437.22 98.47 565.79 235.21 611.37C252.41 614.38 258.86 604.06 258.86 595.03C258.86 586.86 258.43 559.77 258.43 530.96C172 546.87 149.64 509.89 142.76 490.54C138.89 480.65 122.12 450.12 107.5 441.95C95.46 435.5 78.26 419.59 107.07 419.16C134.16 418.73 153.51 444.1 159.96 454.42C190.92 506.45 240.37 491.83 260.15 482.8C263.16 460.44 272.19 445.39 282.08 436.79C205.54 428.19 125.56 398.52 125.56 266.94C125.56 229.53 138.89 198.57 160.82 174.49C157.38 165.89 145.34 130.63 164.26 83.33C164.26 83.33 193.07 74.3 258.86 118.59C286.38 110.85 315.62 106.98 344.86 106.98C374.1 106.98 403.34 110.85 430.86 118.59C496.65 73.87 525.46 83.33 525.46 83.33C544.38 130.63 532.34 165.89 528.9 174.49C550.83 198.57 564.16 229.1 564.16 266.94C564.16 398.95 483.75 428.19 407.21 436.79C419.68 447.54 430.43 468.18 430.43 500.43C430.43 546.44 430 583.42 430 595.03C430 604.06 436.45 614.81 453.65 611.37C521.939 588.314 581.279 544.424 623.318 485.878C665.358 427.331 687.979 357.076 688 285C688 94.94 534.06 -59 344 -59Z" fill="url(#paint0_linear)"/>
</g>
<defs>
<linearGradient id="paint0_linear" x1="344" y1="-59" x2="344" y2="612.027" gradientUnits="userSpaceOnUse">
<stop stop-color="#121214"/>
<stop offset="1" stop-opacity="0"/>
</linearGradient>
</defs>
</svg>
