<svg width="688" height="630" viewBox="0 0 688 630" fill="none" xmlns="http://www.w3.org/2000/svg">
<g opacity="0.05">
<path fill-rule="evenodd" clip-rule="evenodd" d="M344 -58C153.94 -58 0 95.94 0 286C0 438.22 98.47 566.79 235.21 612.37C252.41 615.38 258.86 605.06 258.86 596.03C258.86 587.86 258.43 560.77 258.43 531.96C172 547.87 149.64 510.89 142.76 491.54C138.89 481.65 122.12 451.12 107.5 442.95C95.46 436.5 78.26 420.59 107.07 420.16C134.16 419.73 153.51 445.1 159.96 455.42C190.92 507.45 240.37 492.83 260.15 483.8C263.16 461.44 272.19 446.39 282.08 437.79C205.54 429.19 125.56 399.52 125.56 267.94C125.56 230.53 138.89 199.57 160.82 175.49C157.38 166.89 145.34 131.63 164.26 84.33C164.26 84.33 193.07 75.3 258.86 119.59C286.38 111.85 315.62 107.98 344.86 107.98C374.1 107.98 403.34 111.85 430.86 119.59C496.65 74.87 525.46 84.33 525.46 84.33C544.38 131.63 532.34 166.89 528.9 175.49C550.83 199.57 564.16 230.1 564.16 267.94C564.16 399.95 483.75 429.19 407.21 437.79C419.68 448.54 430.43 469.18 430.43 501.43C430.43 547.44 430 584.42 430 596.03C430 605.06 436.45 615.81 453.65 612.37C521.939 589.314 581.279 545.424 623.318 486.878C665.358 428.331 687.979 358.076 688 286C688 95.94 534.06 -58 344 -58Z" fill="url(#paint0_linear)"/>
</g>
<defs>
<linearGradient id="paint0_linear" x1="344" y1="-58" x2="344" y2="613.027" gradientUnits="userSpaceOnUse">
<stop stop-color="#CBD2DC"/>
<stop offset="1" stop-color="#CBD2DC" stop-opacity="0"/>
</linearGradient>
</defs>
</svg>
