<svg width="295" height="124" viewBox="0 0 295 124" fill="none" xmlns="http://www.w3.org/2000/svg">
<path d="M89.9062 42.375C88.2188 44.25 85.75 45.7604 82.5 46.9062C79.25 48.0521 75.6875 48.625 71.8125 48.625C65.8542 48.625 61.0938 46.8021 57.5312 43.1562C53.9688 39.5104 52.0625 34.4375 51.8125 27.9375L51.7812 24C51.7812 19.5208 52.5729 15.6146 54.1562 12.2812C55.7396 8.92708 58 6.35417 60.9375 4.5625C63.8958 2.75 67.3125 1.84375 71.1875 1.84375C76.8542 1.84375 81.25 3.14583 84.375 5.75C87.5208 8.33333 89.3542 12.1979 89.875 17.3438H79.3125C78.9375 14.8021 78.125 12.9896 76.875 11.9062C75.625 10.8229 73.8542 10.2812 71.5625 10.2812C68.8125 10.2812 66.6875 11.4479 65.1875 13.7812C63.6875 16.1146 62.9271 19.4479 62.9062 23.7812V26.5312C62.9062 31.0729 63.6771 34.4896 65.2188 36.7812C66.7812 39.0521 69.2292 40.1875 72.5625 40.1875C75.4167 40.1875 77.5417 39.5521 78.9375 38.2812V31.2188H71.3125V23.6875H89.9062V42.375ZM106.906 48H96.3438V14.1875H106.906V48ZM95.7188 5.46875C95.7188 3.96875 96.2604 2.73958 97.3438 1.78125C98.4271 0.822917 99.8333 0.34375 101.562 0.34375C103.292 0.34375 104.698 0.822917 105.781 1.78125C106.865 2.73958 107.406 3.96875 107.406 5.46875C107.406 6.96875 106.865 8.19792 105.781 9.15625C104.698 10.1146 103.292 10.5938 101.562 10.5938C99.8333 10.5938 98.4271 10.1146 97.3438 9.15625C96.2604 8.19792 95.7188 6.96875 95.7188 5.46875ZM125.688 5.78125V14.1875H131.25V21.5H125.688V36.9688C125.688 38.2396 125.917 39.125 126.375 39.625C126.833 40.125 127.74 40.375 129.094 40.375C130.135 40.375 131.01 40.3125 131.719 40.1875V47.7188C129.823 48.3229 127.844 48.625 125.781 48.625C122.156 48.625 119.479 47.7708 117.75 46.0625C116.021 44.3542 115.156 41.7604 115.156 38.2812V21.5H110.844V14.1875H115.156V5.78125H125.688ZM145.719 17.8125C147.969 14.9792 150.844 13.5625 154.344 13.5625C158.073 13.5625 160.885 14.6667 162.781 16.875C164.677 19.0833 165.646 22.3438 165.688 26.6562V48H155.125V26.9062C155.125 25.1146 154.76 23.8021 154.031 22.9688C153.302 22.1146 152.062 21.6875 150.312 21.6875C148.146 21.6875 146.615 22.375 145.719 23.75V48H135.188V0H145.719V17.8125ZM191.688 44.3438C189.458 47.1979 186.448 48.625 182.656 48.625C178.948 48.625 176.135 47.5521 174.219 45.4062C172.323 43.2396 171.375 40.1354 171.375 36.0938V14.1875H181.906V36.1562C181.906 39.0521 183.312 40.5 186.125 40.5C188.542 40.5 190.26 39.6354 191.281 37.9062V14.1875H201.875V48H192L191.688 44.3438ZM239.062 31.375C239.062 36.9167 237.917 41.1771 235.625 44.1562C233.333 47.1354 230.104 48.625 225.938 48.625C222.5 48.625 219.729 47.2604 217.625 44.5312L217.188 48H207.75V0H218.281V16.9062C220.24 14.6771 222.771 13.5625 225.875 13.5625C230.083 13.5625 233.333 15.0729 235.625 18.0938C237.917 21.1146 239.062 25.3646 239.062 30.8438V31.375ZM228.5 30.7188C228.5 27.4688 228.062 25.1562 227.188 23.7812C226.333 22.3854 225.01 21.6875 223.219 21.6875C220.844 21.6875 219.198 22.5938 218.281 24.4062V37.8438C219.177 39.6354 220.844 40.5312 223.281 40.5312C225.76 40.5312 227.333 39.3229 228 36.9062C228.333 35.7188 228.5 33.6562 228.5 30.7188ZM0.15625 123V77.5H16.5C22.3542 77.5 26.8021 78.5729 29.8438 80.7188C32.9062 82.8646 34.4375 85.9792 34.4375 90.0625C34.4375 92.4167 33.8958 94.4271 32.8125 96.0938C31.7292 97.7604 30.1354 98.9896 28.0312 99.7812C30.4062 100.406 32.2292 101.573 33.5 103.281C34.7708 104.99 35.4062 107.073 35.4062 109.531C35.4062 113.99 33.9896 117.344 31.1562 119.594C28.3438 121.823 24.1667 122.958 18.625 123H0.15625ZM11.125 103.656V114.562H18.3125C20.2917 114.562 21.8125 114.115 22.875 113.219C23.9375 112.302 24.4688 111.021 24.4688 109.375C24.4688 105.583 22.5833 103.677 18.8125 103.656H11.125ZM11.125 96.4688H16.8438C19.2396 96.4479 20.9479 96.0104 21.9688 95.1562C22.9896 94.3021 23.5 93.0417 23.5 91.375C23.5 89.4583 22.9479 88.0833 21.8438 87.25C20.7396 86.3958 18.9583 85.9688 16.5 85.9688H11.125V96.4688ZM39.6562 105.781C39.6562 102.406 40.3125 99.4062 41.625 96.7812C42.9375 94.1354 44.8229 92.1042 47.2812 90.6875C49.7396 89.2708 52.625 88.5625 55.9375 88.5625C61 88.5625 64.9896 90.1354 67.9062 93.2812C70.8229 96.4062 72.2812 100.667 72.2812 106.062V106.438C72.2812 111.708 70.8125 115.896 67.875 119C64.9583 122.083 61 123.625 56 123.625C51.1875 123.625 47.3229 122.188 44.4062 119.312C41.4896 116.417 39.9167 112.5 39.6875 107.562L39.6562 105.781ZM50.1875 106.438C50.1875 109.562 50.6771 111.854 51.6562 113.312C52.6354 114.771 54.0833 115.5 56 115.5C59.75 115.5 61.6667 112.615 61.75 106.844V105.781C61.75 99.7188 59.8125 96.6875 55.9375 96.6875C52.4167 96.6875 50.5104 99.3021 50.2188 104.531L50.1875 106.438ZM75.5938 105.781C75.5938 102.406 76.25 99.4062 77.5625 96.7812C78.875 94.1354 80.7604 92.1042 83.2188 90.6875C85.6771 89.2708 88.5625 88.5625 91.875 88.5625C96.9375 88.5625 100.927 90.1354 103.844 93.2812C106.76 96.4062 108.219 100.667 108.219 106.062V106.438C108.219 111.708 106.75 115.896 103.812 119C100.896 122.083 96.9375 123.625 91.9375 123.625C87.125 123.625 83.2604 122.188 80.3438 119.312C77.4271 116.417 75.8542 112.5 75.625 107.562L75.5938 105.781ZM86.125 106.438C86.125 109.562 86.6146 111.854 87.5938 113.312C88.5729 114.771 90.0208 115.5 91.9375 115.5C95.6875 115.5 97.6042 112.615 97.6875 106.844V105.781C97.6875 99.7188 95.75 96.6875 91.875 96.6875C88.3542 96.6875 86.4479 99.3021 86.1562 104.531L86.125 106.438ZM126.438 110.406L123.469 113.375V123H112.938V74.9688H123.469V100.469L124.531 99.0625L132.469 89.1875H145.094L133.25 103.094L145.875 123H133.812L126.438 110.406ZM157.812 89.1875L158.156 93.1562C160.552 90.0938 163.771 88.5625 167.812 88.5625C172.083 88.5625 174.969 90.2604 176.469 93.6562C178.76 90.2604 182.073 88.5625 186.406 88.5625C193.26 88.5625 196.781 92.7083 196.969 101V123H186.406V101.656C186.406 99.9271 186.115 98.6667 185.531 97.875C184.948 97.0833 183.885 96.6875 182.344 96.6875C180.26 96.6875 178.708 97.6146 177.688 99.4688L177.719 99.9062V123H167.156V101.719C167.156 99.9479 166.875 98.6667 166.312 97.875C165.75 97.0833 164.677 96.6875 163.094 96.6875C161.073 96.6875 159.531 97.6146 158.469 99.4688V123H147.938V89.1875H157.812ZM222.031 123C221.656 122.312 221.323 121.302 221.031 119.969C219.094 122.406 216.385 123.625 212.906 123.625C209.719 123.625 207.01 122.667 204.781 120.75C202.552 118.812 201.438 116.385 201.438 113.469C201.438 109.802 202.792 107.031 205.5 105.156C208.208 103.281 212.146 102.344 217.312 102.344H220.562V100.562C220.562 97.4583 219.219 95.9062 216.531 95.9062C214.031 95.9062 212.781 97.1354 212.781 99.5938H202.25C202.25 96.3229 203.635 93.6667 206.406 91.625C209.198 89.5833 212.75 88.5625 217.062 88.5625C221.375 88.5625 224.781 89.6146 227.281 91.7188C229.781 93.8229 231.062 96.7083 231.125 100.375V115.344C231.167 118.448 231.646 120.823 232.562 122.469V123H222.031ZM215.438 116.125C216.75 116.125 217.833 115.844 218.688 115.281C219.562 114.719 220.188 114.083 220.562 113.375V107.969H217.5C213.833 107.969 212 109.615 212 112.906C212 113.865 212.323 114.646 212.969 115.25C213.615 115.833 214.438 116.125 215.438 116.125ZM257.438 98.7188L253.969 98.4688C250.656 98.4688 248.531 99.5104 247.594 101.594V123H237.062V89.1875H246.938L247.281 93.5312C249.052 90.2188 251.521 88.5625 254.688 88.5625C255.812 88.5625 256.792 88.6875 257.625 88.9375L257.438 98.7188ZM274.812 110.406L271.844 113.375V123H261.312V74.9688H271.844V100.469L272.906 99.0625L280.844 89.1875H293.469L281.625 103.094L294.25 123H282.188L274.812 110.406Z" fill="#253237"/>
</svg>
